<svg width="40" height="40" viewBox="0 0 40 40" fill="none" xmlns="http://www.w3.org/2000/svg">
<g clip-path="url(#clip0_1132_217)">
<path d="M30.625 0H9.375C4.19733 0 0 4.19733 0 9.375V30.625C0 35.8027 4.19733 40 9.375 40H30.625C35.8027 40 40 35.8027 40 30.625V9.375C40 4.19733 35.8027 0 30.625 0Z" fill="#242938"/>
<mask id="mask0_1132_217" style="mask-type:luminance" maskUnits="userSpaceOnUse" x="9" y="4" width="22" height="32">
<path d="M9.53125 4.375H30.3688V35.625H9.53125V4.375Z" fill="white"/>
</mask>
<g mask="url(#mask0_1132_217)">
<path d="M14.7418 35.625C17.6168 35.625 19.95 33.2917 19.95 30.4167V25.2083H14.7418C11.8668 25.2083 9.53333 27.5417 9.53333 30.4167C9.53333 33.2917 11.8668 35.625 14.7418 35.625Z" fill="#0ACF83"/>
<path d="M9.53333 20C9.53333 17.125 11.8668 14.7917 14.7418 14.7917H19.95V25.2083H14.7418C11.8668 25.2083 9.53333 22.875 9.53333 20Z" fill="#A259FF"/>
<path d="M9.53333 9.58328C9.53333 6.70828 11.8668 4.375 14.7418 4.375H19.95V14.7917H14.7418C11.8668 14.7917 9.53333 12.4583 9.53333 9.58328Z" fill="#F24E1E"/>
<path d="M19.9501 4.375H25.1584C28.0334 4.375 30.3668 6.70828 30.3668 9.58328C30.3668 12.4583 28.0334 14.7917 25.1584 14.7917H19.9501V4.375Z" fill="#FF7262"/>
<path d="M30.3668 20C30.3668 22.875 28.0334 25.2083 25.1584 25.2083C22.2834 25.2083 19.9501 22.875 19.9501 20C19.9501 17.125 22.2834 14.7917 25.1584 14.7917C28.0334 14.7917 30.3668 17.125 30.3668 20Z" fill="#1ABCFE"/>
</g>
</g>
<defs>
<clipPath id="clip0_1132_217">
<rect width="40" height="40" fill="white"/>
</clipPath>
</defs>
</svg>
