<svg width="33" height="32" viewBox="0 0 33 32" fill="none" xmlns="http://www.w3.org/2000/svg">
<path d="M14.38 12.64C14.8466 14.16 15.3266 15.68 15.8066 17.2267H12.98C13.46 15.68 13.9133 14.16 14.38 12.64Z" fill="#A74AAF"/>
<path d="M23.1666 2.66669H9.83329C8.06518 2.66669 6.36949 3.36907 5.11925 4.61931C3.869 5.86955 3.16663 7.56524 3.16663 9.33335V22.6667C3.16663 24.4348 3.869 26.1305 5.11925 27.3807C6.36949 28.631 8.06518 29.3334 9.83329 29.3334H23.1666C24.9347 29.3334 26.6304 28.631 27.8807 27.3807C29.1309 26.1305 29.8333 24.4348 29.8333 22.6667V9.33335C29.8333 7.56524 29.1309 5.86955 27.8807 4.61931C26.6304 3.36907 24.9347 2.66669 23.1666 2.66669ZM19.82 22.3734H17.74C17.657 22.3849 17.5728 22.3634 17.5055 22.3135C17.4382 22.2637 17.3931 22.1894 17.38 22.1067C17.1266 21.36 16.86 20.6134 16.6066 19.8534C16.5986 19.8057 16.5812 19.7601 16.5552 19.7194C16.5292 19.6786 16.4953 19.6435 16.4555 19.6162C16.4157 19.5888 16.3708 19.5697 16.3235 19.5601C16.2761 19.5504 16.2273 19.5504 16.18 19.56H12.6333C12.584 19.5484 12.5329 19.5473 12.4832 19.5568C12.4335 19.5663 12.3863 19.5861 12.3448 19.6151C12.3033 19.644 12.2683 19.6814 12.2422 19.7247C12.2161 19.7681 12.1994 19.8165 12.1933 19.8667C11.9666 20.6134 11.7133 21.3334 11.4866 22.08C11.4803 22.1271 11.4643 22.1724 11.4397 22.2131C11.4151 22.2538 11.3825 22.289 11.3437 22.3165C11.3049 22.344 11.2609 22.3632 11.2144 22.373C11.1679 22.3828 11.1199 22.3829 11.0733 22.3734H9.24663C8.92663 22.3734 8.89996 22.3734 9.00663 22.04L11.8866 13.7334C12.1533 12.9734 12.42 12.2134 12.66 11.4534C12.7278 11.2284 12.7637 10.995 12.7666 10.76C12.7666 10.48 12.8733 10.4134 13.1266 10.4267H15.6733C15.86 10.4267 15.9533 10.4267 16.02 10.68L19.3 19.92C19.5533 20.64 19.8066 21.3467 20.0466 22.0534C20.1533 22.3467 20.14 22.3734 19.82 22.3734ZM23.9 22.1467C23.9 22.3734 23.8066 22.44 23.5933 22.44H21.6733C21.4066 22.44 21.34 22.3334 21.34 22.0934V13.72C21.34 13.4534 21.42 13.3467 21.7 13.36H23.58C23.7933 13.36 23.9 13.36 23.9 13.6534C23.8906 16.48 23.8906 19.3107 23.9 22.1467ZM22.5666 12.4134C22.3756 12.4255 22.1842 12.3963 22.0054 12.3279C21.8266 12.2594 21.6647 12.1533 21.5306 12.0167C21.3965 11.88 21.2934 11.7161 21.2283 11.5361C21.1632 11.3561 21.1376 11.1641 21.1533 10.9734C21.1552 10.7838 21.1948 10.5964 21.2698 10.4223C21.3449 10.2482 21.4538 10.0908 21.5903 9.95922C21.7269 9.82766 21.8882 9.72461 22.065 9.65607C22.2418 9.58753 22.4304 9.55488 22.62 9.56002C22.8044 9.55943 22.987 9.59711 23.1561 9.67069C23.3252 9.74426 23.4773 9.85213 23.6026 9.98747C23.7279 10.1228 23.8238 10.2827 23.8841 10.457C23.9445 10.6313 23.9681 10.8162 23.9533 11C23.9642 11.1817 23.9378 11.3637 23.8757 11.5349C23.8136 11.706 23.7171 11.8626 23.5922 11.995C23.4673 12.1274 23.3166 12.2328 23.1494 12.3048C22.9822 12.3767 22.802 12.4137 22.62 12.4134H22.5666Z" fill="#A74AAF"/>
<path d="M15.8066 17.2267H12.98C13.46 15.68 13.9133 14.16 14.3133 12.64C14.8466 14.16 15.3266 15.68 15.8066 17.2267Z" fill="#A74AAF"/>
</svg>
