<svg width="40" height="40" viewBox="0 0 40 40" fill="none" xmlns="http://www.w3.org/2000/svg">
<g clip-path="url(#clip0_40_2)">
<path d="M32.5 0C34.566 0 36.3325 0.733507 37.7995 2.20052C39.2665 3.66753 40 5.43403 40 7.5V32.5C40 34.566 39.2665 36.3325 37.7995 37.7995C36.3325 39.2665 34.566 40 32.5 40H7.5C5.43403 40 3.66753 39.2665 2.20052 37.7995C0.733507 36.3325 0 34.566 0 32.5V7.5C0 5.43403 0.733507 3.66753 2.20052 2.20052C3.66753 0.733507 5.43403 0 7.5 0H32.5ZM12.9948 9.55729H3.33333V30.0521H13.2812C15.3125 30.0521 17.0226 29.553 18.4115 28.5547C19.8003 27.5564 20.4948 26.0764 20.4948 24.1146C20.4948 21.3715 19.2535 19.6354 16.7708 18.9062C18.6285 18.0035 19.5573 16.5799 19.5573 14.6354C19.5573 13.6458 19.388 12.8082 19.0495 12.1224C18.7109 11.4366 18.2205 10.9115 17.5781 10.5469C16.9358 10.1823 16.25 9.92622 15.5208 9.77865C14.7917 9.63108 13.9497 9.55729 12.9948 9.55729ZM12.4219 17.8385H7.83854V13.0469H12.0833C14.1493 13.0469 15.1823 13.8281 15.1823 15.3906C15.1823 17.0226 14.2622 17.8385 12.4219 17.8385ZM12.6562 26.5625H7.83854V20.9115H12.7604C14.9132 20.9115 15.9896 21.8924 15.9896 23.8542C15.9896 25.6597 14.8785 26.5625 12.6562 26.5625ZM29.5833 27.3958C28.4028 27.3958 27.5 27.066 26.875 26.4062C26.25 25.7465 25.9375 24.8177 25.9375 23.6198H36.6406C36.658 23.4462 36.6667 23.1858 36.6667 22.8385C36.6667 20.5469 36.02 18.6328 34.7266 17.0964C33.4332 15.5599 31.6667 14.7917 29.4271 14.7917C27.2049 14.7917 25.3819 15.5382 23.9583 17.0312C22.5347 18.5243 21.8229 20.3993 21.8229 22.6562C21.8229 25 22.5087 26.8837 23.8802 28.3073C25.2517 29.7309 27.1007 30.4427 29.4271 30.4427C32.9861 30.4427 35.3038 28.7847 36.3802 25.4687H32.7865C32.5955 26.059 32.1832 26.5278 31.5495 26.875C30.9158 27.2222 30.2604 27.3958 29.5833 27.3958ZM29.3229 17.8646C31.2847 17.8646 32.3611 18.9236 32.5521 21.0417H25.9375C26.0069 20.0694 26.3455 19.2969 26.9531 18.724C27.5608 18.151 28.3507 17.8646 29.3229 17.8646ZM25.1042 10.9375H33.4115V12.9427H25.1042V10.9375Z" fill="#333333"/>
</g>
<defs>
<clipPath id="clip0_40_2">
<rect width="40" height="40" fill="white"/>
</clipPath>
</defs>
</svg>
