<svg width="48" height="48" viewBox="0 0 48 48" fill="none" xmlns="http://www.w3.org/2000/svg">
<path fill-rule="evenodd" clip-rule="evenodd" d="M12.6857 13.5703C13.1783 14.0415 13.4637 14.689 13.4791 15.3704C13.4945 16.0519 13.2387 16.7117 12.7679 17.2046L6.28108 24.0001L12.7679 30.7955C13.239 31.2888 13.4947 31.949 13.479 32.6309C13.4632 33.3128 13.1772 33.9605 12.6839 34.4315C12.1906 34.9025 11.5304 35.1583 10.8485 35.1425C10.1667 35.1268 9.51896 34.8408 9.04794 34.3475L0.86394 25.7761C0.407046 25.2977 0.1521 24.6616 0.1521 24.0001C0.1521 23.3385 0.407046 22.7024 0.86394 22.2241L9.04794 13.6526C9.51909 13.16 10.1666 12.8746 10.848 12.8592C11.5295 12.8438 12.1893 13.0995 12.6822 13.5703H12.6857ZM35.3142 13.5703C35.5584 13.3367 35.8462 13.1535 36.1612 13.0312C36.4762 12.9089 36.8123 12.8498 37.1501 12.8575C37.488 12.8651 37.821 12.9393 38.1302 13.0757C38.4394 13.2121 38.7186 13.4082 38.9519 13.6526L47.1359 22.2241C47.5928 22.7024 47.8478 23.3385 47.8478 24.0001C47.8478 24.6616 47.5928 25.2977 47.1359 25.7761L38.9519 34.3475C38.7187 34.5917 38.4397 34.7877 38.1307 34.9241C37.8218 35.0605 37.489 35.1347 37.1513 35.1425C36.8137 35.1503 36.4778 35.0915 36.1629 34.9695C35.848 34.8475 35.5602 34.6647 35.3159 34.4315C35.0717 34.1982 34.8758 33.9192 34.7393 33.6102C34.6029 33.3013 34.5287 32.9685 34.5209 32.6309C34.5131 32.2932 34.5719 31.9574 34.6939 31.6425C34.8159 31.3275 34.9987 31.0397 35.2319 30.7955L41.7257 24.0001L35.2354 17.2046C34.765 16.7112 34.5098 16.0512 34.5259 15.3697C34.542 14.6882 34.828 14.041 35.3211 13.5703H35.3142ZM15.4285 21.4286C16.1105 21.4286 16.7646 21.6995 17.2468 22.1818C17.729 22.664 17.9999 23.3181 17.9999 24.0001C17.9999 24.682 17.729 25.3361 17.2468 25.8183C16.7646 26.3006 16.1105 26.5715 15.4285 26.5715C14.7465 26.5715 14.0925 26.3006 13.6102 25.8183C13.128 25.3361 12.8571 24.682 12.8571 24.0001C12.8571 23.3181 13.128 22.664 13.6102 22.1818C14.0925 21.6995 14.7465 21.4286 15.4285 21.4286ZM26.5714 24.0001C26.5714 23.3181 26.3005 22.664 25.8182 22.1818C25.336 21.6995 24.6819 21.4286 23.9999 21.4286C23.318 21.4286 22.6639 21.6995 22.1817 22.1818C21.6994 22.664 21.4285 23.3181 21.4285 24.0001C21.4285 24.682 21.6994 25.3361 22.1817 25.8183C22.6639 26.3006 23.318 26.5715 23.9999 26.5715C24.6819 26.5715 25.336 26.3006 25.8182 25.8183C26.3005 25.3361 26.5714 24.682 26.5714 24.0001ZM35.1428 24.0001C35.1428 23.3181 34.8719 22.664 34.3896 22.1818C33.9074 21.6995 33.2534 21.4286 32.5714 21.4286C31.8894 21.4286 31.2353 21.6995 30.7531 22.1818C30.2709 22.664 29.9999 23.3181 29.9999 24.0001C29.9999 24.682 30.2709 25.3361 30.7531 25.8183C31.2353 26.3006 31.8894 26.5715 32.5714 26.5715C33.2534 26.5715 33.9074 26.3006 34.3896 25.8183C34.8719 25.3361 35.1428 24.682 35.1428 24.0001Z" fill="#A74AAF"/>
</svg>
