<svg width="49" height="48" viewBox="0 0 49 48" fill="none" xmlns="http://www.w3.org/2000/svg">
<path d="M24.6335 31.5469C24.6335 31.7531 24.7929 31.9219 24.9851 31.9219H33.657C33.8492 31.9219 34.0085 31.7531 34.0085 31.5469V29.2969C34.0085 29.0906 33.8492 28.9219 33.657 28.9219H24.9851C24.7929 28.9219 24.6335 29.0906 24.6335 29.2969V31.5469ZM15.4976 31.8328L24.4976 24.2859C24.6757 24.1359 24.6757 23.8594 24.4976 23.7094L15.4976 16.1672C15.4433 16.121 15.3768 16.0913 15.3062 16.0818C15.2355 16.0722 15.1635 16.0831 15.0989 16.1132C15.0342 16.1434 14.9796 16.1914 14.9414 16.2516C14.9032 16.3119 14.8832 16.3818 14.8835 16.4531V19.3922C14.8835 19.5047 14.9304 19.6078 15.0195 19.6781L20.1664 24L15.0195 28.3219C14.9776 28.3569 14.9437 28.4007 14.9203 28.45C14.8968 28.4993 14.8843 28.5532 14.8835 28.6078V31.5469C14.8835 31.8656 15.2539 32.0391 15.4976 31.8328ZM41.696 5.25H7.19604C6.36636 5.25 5.69604 5.92031 5.69604 6.75V41.25C5.69604 42.0797 6.36636 42.75 7.19604 42.75H41.696C42.5257 42.75 43.196 42.0797 43.196 41.25V6.75C43.196 5.92031 42.5257 5.25 41.696 5.25ZM39.821 39.375H9.07104V8.625H39.821V39.375Z" fill="#A74AAF"/>
</svg>
