<svg width="33" height="32" viewBox="0 0 33 32" fill="none" xmlns="http://www.w3.org/2000/svg">
<g clip-path="url(#clip0_1181_4)">
<path d="M16.446 0C7.60604 0 0.446045 7.16 0.446045 16C0.446045 23.08 5.02604 29.06 11.386 31.18C12.186 31.32 12.486 30.84 12.486 30.42C12.486 30.04 12.466 28.78 12.466 27.44C8.44605 28.18 7.40604 26.46 7.08604 25.56C6.90604 25.1 6.12604 23.68 5.44604 23.3C4.88604 23 4.08604 22.26 5.42604 22.24C6.68604 22.22 7.58604 23.4 7.88604 23.88C9.32605 26.3 11.626 25.62 12.546 25.2C12.686 24.16 13.106 23.46 13.566 23.06C10.006 22.66 6.28605 21.28 6.28605 15.16C6.28605 13.42 6.90604 11.98 7.92604 10.86C7.76604 10.46 7.20604 8.82 8.08604 6.62C8.08604 6.62 9.42604 6.2 12.486 8.26C13.766 7.9 15.126 7.72 16.486 7.72C17.846 7.72 19.206 7.9 20.486 8.26C23.546 6.18 24.886 6.62 24.886 6.62C25.766 8.82 25.206 10.46 25.046 10.86C26.066 11.98 26.686 13.4 26.686 15.16C26.686 21.3 22.946 22.66 19.386 23.06C19.966 23.56 20.466 24.52 20.466 26.02C20.466 28.16 20.446 29.88 20.446 30.42C20.446 30.84 20.746 31.34 21.546 31.18C24.7228 30.1085 27.4834 28.0673 29.4388 25.3441C31.3943 22.6208 32.4461 19.3526 32.446 16C32.446 7.16 25.286 0 16.446 0Z" fill="#A74AAF"/>
</g>
<defs>
<clipPath id="clip0_1181_4">
<rect width="32" height="32" fill="white" transform="translate(0.446045)"/>
</clipPath>
</defs>
</svg>
