<svg width="35" height="40" viewBox="0 0 35 40" fill="none" xmlns="http://www.w3.org/2000/svg">
<g clip-path="url(#clip0_391_6)">
<path d="M17.5 15.8328C16.6759 15.8331 15.8703 16.0778 15.1853 16.5359C14.5002 16.994 13.9663 17.6449 13.6511 18.4064C13.336 19.1678 13.2537 20.0057 13.4146 20.8139C13.5756 21.6222 13.9726 22.3646 14.5555 22.9472C15.1383 23.5298 15.8808 23.9266 16.6892 24.0872C17.4975 24.2479 18.3353 24.1653 19.0966 23.8498C19.858 23.5344 20.5087 23.0003 20.9666 22.315C21.4244 21.6297 21.6687 20.8241 21.6687 20C21.6679 18.8948 21.2284 17.8351 20.4467 17.0537C19.6651 16.2724 18.6052 15.8332 17.5 15.8328ZM27.243 12.6297C27.0308 12.0921 26.7105 11.6038 26.3018 11.1951C25.8931 10.7864 25.4048 10.466 24.8672 10.2539C23.2266 9.60625 19.3203 9.75156 17.5 9.75156C15.6797 9.75156 11.7773 9.60078 10.132 10.2539C9.59441 10.466 9.10611 10.7864 8.69743 11.1951C8.28874 11.6038 7.96839 12.0921 7.75625 12.6297C7.10937 14.2703 7.25391 18.1805 7.25391 19.9992C7.25391 21.818 7.10938 25.7234 7.75937 27.3695C7.97152 27.9072 8.29187 28.3955 8.70055 28.8041C9.10923 29.2128 9.59753 29.5332 10.1352 29.7453C11.7758 30.393 15.682 30.2477 17.5031 30.2477C19.3242 30.2477 23.225 30.3984 24.8703 29.7453C25.4079 29.5332 25.8962 29.2128 26.3049 28.8041C26.7136 28.3955 27.034 27.9072 27.2461 27.3695C27.8984 25.7289 27.7484 21.8188 27.7484 20C27.7484 18.1812 27.8984 14.2766 27.2461 12.6305L27.243 12.6297ZM17.5 26.4062C16.233 26.4062 14.9944 26.0305 13.9409 25.3266C12.8874 24.6227 12.0663 23.6222 11.5814 22.4516C11.0965 21.281 10.9697 19.9929 11.2168 18.7502C11.464 17.5075 12.0742 16.366 12.9701 15.4701C13.866 14.5742 15.0075 13.964 16.2502 13.7168C17.4929 13.4697 18.781 13.5965 19.9516 14.0814C21.1222 14.5663 22.1227 15.3874 22.8266 16.4409C23.5305 17.4944 23.9062 18.733 23.9062 20C23.9073 20.8416 23.7423 21.6751 23.4207 22.4528C23.0991 23.2305 22.6273 23.9371 22.0322 24.5322C21.4371 25.1273 20.7305 25.5991 19.9528 25.9207C19.1751 26.2423 18.3416 26.4073 17.5 26.4062ZM24.1703 14.8203C23.8745 14.8205 23.5854 14.7329 23.3393 14.5687C23.0933 14.4045 22.9016 14.171 22.7883 13.8978C22.675 13.6246 22.6452 13.3239 22.7029 13.0338C22.7605 12.7436 22.9028 12.4771 23.1119 12.2679C23.321 12.0587 23.5874 11.9162 23.8775 11.8585C24.1676 11.8007 24.4683 11.8303 24.7416 11.9434C25.0149 12.0566 25.2484 12.2482 25.4128 12.4942C25.5771 12.7401 25.6648 13.0292 25.6648 13.325C25.6657 13.5214 25.6277 13.7161 25.5531 13.8978C25.4786 14.0795 25.3688 14.2447 25.2303 14.3839C25.0917 14.5231 24.927 14.6336 24.7457 14.709C24.5643 14.7845 24.3699 14.8233 24.1734 14.8234L24.1703 14.8203ZM31.25 2.5H3.75C2.75544 2.5 1.80161 2.89509 1.09835 3.59835C0.395088 4.30161 0 5.25544 0 6.25L0 33.75C0 34.7446 0.395088 35.6984 1.09835 36.4017C1.80161 37.1049 2.75544 37.5 3.75 37.5H31.25C32.2446 37.5 33.1984 37.1049 33.9017 36.4017C34.6049 35.6984 35 34.7446 35 33.75V6.25C35 5.25544 34.6049 4.30161 33.9017 3.59835C33.1984 2.89509 32.2446 2.5 31.25 2.5ZM29.9125 25.1562C29.8117 27.1586 29.3547 28.9328 27.893 30.3906C26.4312 31.8484 24.6586 32.3148 22.6586 32.4102C20.5953 32.5266 14.4094 32.5266 12.3461 32.4102C10.3437 32.3094 8.57578 31.8516 7.11172 30.3906C5.64766 28.9297 5.1875 27.1547 5.09219 25.1562C4.97578 23.0922 4.97578 16.9055 5.09219 14.8438C5.19297 12.8414 5.64453 11.0672 7.11172 9.60938C8.57891 8.15156 10.3516 7.69063 12.3461 7.59531C14.4094 7.47891 20.5953 7.47891 22.6586 7.59531C24.6609 7.69609 26.4344 8.15391 27.893 9.61484C29.3516 11.0758 29.8172 12.8508 29.9125 14.8531C30.0289 16.9094 30.0289 23.0906 29.9125 25.1562Z" fill="#333333"/>
</g>
<defs>
<clipPath id="clip0_391_6">
<rect width="35" height="40" fill="white"/>
</clipPath>
</defs>
</svg>
