<svg width="25" height="24" viewBox="0 0 25 24" fill="none" xmlns="http://www.w3.org/2000/svg">
<path d="M14.5582 17.4067L13.4142 18.9907C14.4995 19.9587 15.8489 20.4427 17.4622 20.4427C18.6942 20.4133 19.6329 20.096 20.2782 19.4893C20.9342 18.8733 21.2609 18.14 21.2609 17.2893C21.2609 16.4587 21.0315 15.7733 20.5715 15.236C20.1129 14.6987 19.3395 14.268 18.2542 13.9453C17.3555 13.672 16.7209 13.4227 16.3475 13.1973C15.9769 12.9627 15.7902 12.6787 15.7902 12.3467C15.7902 12.044 15.9422 11.8 16.2449 11.6133C16.5489 11.4267 16.9542 11.3347 17.4622 11.3347C17.8355 11.3347 18.2542 11.408 18.7235 11.5547C19.1929 11.6813 19.6089 11.888 19.9702 12.1707L20.9969 10.572C20.0982 9.848 18.9049 9.48667 17.4182 9.48667C16.3529 9.48667 15.4782 9.76 14.7929 10.308C14.0889 10.8547 13.7369 11.5347 13.7369 12.3467C13.7475 13.2067 14.0302 13.8773 14.5875 14.356C15.1555 14.836 15.9609 15.2267 17.0075 15.5293C17.8782 15.8027 18.4702 16.076 18.7822 16.3507C18.9263 16.4735 19.0417 16.6265 19.1203 16.7988C19.1989 16.9712 19.2386 17.1586 19.2369 17.348C19.2442 17.5214 19.2062 17.6937 19.1267 17.848C19.0473 18.0023 18.929 18.1333 18.7835 18.228C18.4702 18.4427 18.0195 18.5507 17.4329 18.5507C16.4755 18.56 15.5169 18.1787 14.5582 17.4067ZM7.18487 18.2573C6.86285 18.0545 6.58379 17.7904 6.36354 17.48L4.98487 18.6093C5.39554 19.3027 5.90487 19.788 6.51021 20.0613C7.07687 20.3147 7.72754 20.4427 8.46087 20.4427C8.86087 20.4427 9.27687 20.3787 9.70754 20.252C10.1441 20.1217 10.5487 19.9019 10.8955 19.6067C11.5315 19.0987 11.8635 18.2667 11.8929 17.1133V9.66267H9.91288V16.732C9.91288 17.4067 9.76087 17.8813 9.45954 18.1547C9.15554 18.4187 8.77421 18.5507 8.31421 18.5507C7.87421 18.5507 7.49821 18.4533 7.18487 18.2573ZM0.779541 4C0.779541 2.93913 1.20097 1.92172 1.95111 1.17157C2.70126 0.421427 3.71868 0 4.77954 0H20.7795C21.8404 0 22.8578 0.421427 23.608 1.17157C24.3581 1.92172 24.7795 2.93913 24.7795 4V20C24.7795 21.0609 24.3581 22.0783 23.608 22.8284C22.8578 23.5786 21.8404 24 20.7795 24H4.77954C3.71868 24 2.70126 23.5786 1.95111 22.8284C1.20097 22.0783 0.779541 21.0609 0.779541 20V4ZM4.77954 2.66667C4.42592 2.66667 4.08678 2.80714 3.83673 3.05719C3.58668 3.30724 3.44621 3.64638 3.44621 4V20C3.44621 20.3536 3.58668 20.6928 3.83673 20.9428C4.08678 21.1929 4.42592 21.3333 4.77954 21.3333H20.7795C21.1332 21.3333 21.4723 21.1929 21.7224 20.9428C21.9724 20.6928 22.1129 20.3536 22.1129 20V4C22.1129 3.64638 21.9724 3.30724 21.7224 3.05719C21.4723 2.80714 21.1332 2.66667 20.7795 2.66667H4.77954Z" fill="#A74AAF"/>
</svg>
