<svg width="33" height="32" viewBox="0 0 33 32" fill="none" xmlns="http://www.w3.org/2000/svg">
<g clip-path="url(#clip0_1104_165)">
<path d="M15.3925 0.203956C15.6219 0.0700646 15.8828 -0.000488281 16.1485 -0.000488281C16.4141 -0.000488281 16.675 0.0700646 16.9045 0.203956L29.3325 7.45396C29.5593 7.58586 29.7476 7.77495 29.8785 8.00237C30.0094 8.22978 30.0783 8.48756 30.0785 8.74996V23.25C30.0783 23.5124 30.0094 23.7701 29.8785 23.9975C29.7476 24.225 29.5593 24.4141 29.3325 24.546L16.9045 31.796C16.675 31.9298 16.4141 32.0004 16.1485 32.0004C15.8828 32.0004 15.6219 31.9298 15.3925 31.796L12.2865 29.984C11.9427 29.7835 11.6927 29.4546 11.5915 29.0698C11.4902 28.685 11.546 28.2757 11.7465 27.932C11.947 27.5882 12.2758 27.3382 12.6606 27.237C13.0454 27.1357 13.4547 27.1915 13.7985 27.392L16.1485 28.764L27.0785 22.388V9.61196L16.1485 3.23596L5.22046 9.61196V22.388L7.45446 23.692C8.14246 23.912 8.99446 23.966 9.59246 23.702C9.9055 23.5648 10.1623 23.3249 10.3205 23.022C10.5285 22.646 10.7205 22.02 10.7205 21V10.5C10.7205 10.1021 10.8785 9.7206 11.1598 9.4393C11.4411 9.15799 11.8226 8.99996 12.2205 8.99996C12.6183 8.99996 12.9998 9.15799 13.2811 9.4393C13.5624 9.7206 13.7205 10.1021 13.7205 10.5V21C13.7205 22.38 13.4625 23.544 12.9405 24.48C12.4652 25.3533 11.7141 26.0446 10.8045 26.446C9.19246 27.158 7.41046 26.866 6.32046 26.474C6.23443 26.4429 6.15142 26.4041 6.07246 26.358L2.96446 24.546C2.73799 24.4138 2.55012 24.2246 2.41958 23.9972C2.28904 23.7698 2.22038 23.5122 2.22046 23.25V8.74996C2.22038 8.48775 2.28904 8.23011 2.41958 8.00271C2.55012 7.77531 2.73799 7.58611 2.96446 7.45396L15.3925 0.203956ZM16.7125 10.566C17.5065 9.62196 18.7465 8.99996 20.4285 8.99996C21.9885 8.99996 23.1785 9.53596 23.9845 10.386C24.1246 10.5281 24.235 10.6969 24.3091 10.8823C24.3831 11.0676 24.4195 11.266 24.4159 11.4656C24.4124 11.6652 24.369 11.8621 24.2884 12.0447C24.2078 12.2274 24.0915 12.3921 23.9464 12.5292C23.8013 12.6663 23.6303 12.7731 23.4434 12.8432C23.2565 12.9134 23.0574 12.9456 22.8579 12.9378C22.6584 12.9301 22.4625 12.8826 22.2816 12.7981C22.1007 12.7136 21.9385 12.5939 21.8045 12.446C21.6265 12.264 21.2605 12 20.4265 12C19.5425 12 19.1785 12.296 19.0085 12.496C18.8332 12.7095 18.7315 12.974 18.7185 13.25C18.7185 13.416 18.7905 13.744 19.0085 14.004C19.1785 14.204 19.5425 14.5 20.4285 14.5C20.5719 14.4996 20.7147 14.5198 20.8525 14.56C22.0925 14.74 23.0365 15.296 23.6845 16.066C24.4285 16.952 24.6765 18 24.6765 18.75C24.6765 19.5 24.4285 20.548 23.6845 21.434C22.8905 22.378 21.6505 23 19.9685 23C18.4085 23 17.2185 22.464 16.4145 21.614C16.1511 21.3232 16.0121 20.9408 16.0273 20.5487C16.0425 20.1566 16.2108 19.7862 16.4959 19.5167C16.7811 19.2472 17.1605 19.1002 17.5528 19.1072C17.9451 19.1141 18.319 19.2745 18.5945 19.554C18.7685 19.738 19.1365 20 19.9685 20C20.8525 20 21.2185 19.704 21.3885 19.504C21.563 19.2901 21.664 19.0257 21.6765 18.75C21.6634 18.474 21.5617 18.2095 21.3865 17.996C21.2185 17.796 20.8525 17.5 19.9685 17.5C19.8243 17.5005 19.6808 17.4803 19.5425 17.44C18.3025 17.26 17.3585 16.704 16.7125 15.934C16.0825 15.1801 15.7315 14.2323 15.7185 13.25C15.7185 12.5 15.9665 11.452 16.7125 10.566Z" fill="#A74AAF"/>
</g>
<defs>
<clipPath id="clip0_1104_165">
<rect width="32" height="32" fill="white" transform="translate(0.220459)"/>
</clipPath>
</defs>
</svg>
