<svg width="37" height="34" viewBox="0 0 37 34" fill="none" xmlns="http://www.w3.org/2000/svg">
<path d="M36.2206 17C36.2206 21.1947 28.2869 24.5946 18.5001 24.5946C8.71329 24.5946 0.779541 21.1947 0.779541 17C0.779541 12.8053 8.71329 9.40552 18.5001 9.40552C28.2869 9.40552 36.2206 12.8053 36.2206 17Z" stroke="#A74AAF"/>
<path d="M10.06 32.5814C13.7484 34.5813 20.5152 29.2221 25.1782 20.6175C29.8387 12.0104 30.6285 3.41593 26.9401 1.41857C23.2517 -0.581319 16.485 4.77788 11.822 13.3825C7.16145 21.9896 6.37162 30.5841 10.06 32.5814Z" stroke="#A74AAF"/>
<path d="M26.9401 32.5814C23.2517 34.5813 16.485 29.2221 11.822 20.6175C7.16145 12.0104 6.37162 3.41593 10.06 1.41857C13.7484 -0.581319 20.5152 4.77788 25.1782 13.3825C29.8387 21.9896 30.6285 30.5841 26.9401 32.5814Z" stroke="#A74AAF"/>
<path d="M15.9688 17C15.9688 17.6714 16.2355 18.3153 16.7102 18.7901C17.185 19.2648 17.8289 19.5315 18.5003 19.5315C19.1717 19.5315 19.8156 19.2648 20.2903 18.7901C20.7651 18.3153 21.0318 17.6714 21.0318 17C21.0318 16.3286 20.7651 15.6847 20.2903 15.21C19.8156 14.7352 19.1717 14.4685 18.5003 14.4685C17.8289 14.4685 17.185 14.7352 16.7102 15.21C16.2355 15.6847 15.9688 16.3286 15.9688 17Z" stroke="#A74AAF"/>
</svg>
