<svg width="44" height="32" viewBox="0 0 44 32" fill="none" xmlns="http://www.w3.org/2000/svg">
<g clip-path="url(#clip0_1103_74)">
<path d="M37.5979 18.3947L37.7739 18.392C38.8859 18.392 39.9379 18.6507 40.8712 19.112L40.8299 19.0933C41.6602 19.4944 42.3692 20.1086 42.8845 20.8733L42.8965 20.892C43.3451 21.5501 43.5669 22.3365 43.5285 23.132V23.124C43.5097 23.4915 43.4177 23.8516 43.2579 24.1832C43.098 24.5147 42.8737 24.811 42.5979 25.0547L42.5952 25.0573C42.2975 25.3496 41.9406 25.5747 41.5485 25.7173L41.5285 25.724C41.3063 25.7684 41.1841 25.7351 41.1619 25.624C41.1396 25.5129 41.2396 25.3907 41.4619 25.2573C42.0645 24.892 42.5005 24.3027 42.6592 23.608L42.6632 23.5907C42.6977 23.1276 42.6055 22.6639 42.3965 22.2493L42.4032 22.264C42.1234 21.6744 41.6906 21.1707 41.1499 20.8053L41.1365 20.7973C40.301 20.2641 39.3473 19.9441 38.3592 19.8653L38.3379 19.864C36.9228 19.6627 35.4797 19.8303 34.1485 20.3507L34.2045 20.3307C34.3979 20.7827 34.5192 21.3067 34.5365 21.856V21.8627C34.5268 22.3979 34.3817 22.9219 34.1148 23.3859C33.8478 23.8498 33.4677 24.2386 33.0099 24.516L32.9952 24.524C32.5819 24.8173 32.1099 25.0747 31.6072 25.2747L31.5605 25.2907C31.1959 25.4663 30.7926 25.5461 30.3885 25.5227H30.3952C29.5516 25.3458 29.3516 24.6124 29.7952 23.3227C29.9885 22.7613 30.2592 22.2747 30.6019 21.8467L30.5939 21.856C31.0325 21.2827 31.5139 20.78 32.0459 20.3347L32.0605 20.3227L31.9299 20.128C31.6709 19.6806 31.454 19.2101 31.2819 18.7227L31.2632 18.6613C31.1299 18.2169 31.0188 17.7951 30.9299 17.396L30.8632 16.9293L30.1965 18.1947C29.6188 19.2613 29.0632 20.1942 28.5299 20.9933L28.3299 21.3267C28.5539 21.8707 28.7192 22.5013 28.7939 23.16L28.7965 23.1933C28.8334 23.7075 28.7373 24.2224 28.5173 24.6886C28.2973 25.1547 27.9609 25.5563 27.5405 25.8547L27.5312 25.8613C27.127 26.1081 26.7084 26.3307 26.2779 26.528L26.1979 26.5613C25.6944 26.7767 25.1567 26.9008 24.6099 26.928H24.5979C24.2262 26.9538 23.8541 26.883 23.5179 26.7227L23.5312 26.728C23.3991 26.6157 23.308 26.4628 23.272 26.2932C23.2361 26.1236 23.2573 25.9469 23.3325 25.7907L23.3299 25.796C23.8632 25.048 24.3885 24.3973 24.9472 23.776L24.9299 23.796L26.3965 21.9307L26.1312 21.3307C25.9009 20.9026 25.7064 20.4562 25.5499 19.996L25.5312 19.932C25.3979 19.4875 25.2868 19.0658 25.1979 18.6667L25.1312 18.2L24.4645 19.8C23.9321 21.0435 23.4432 22.1098 22.9979 22.9987C22.3339 24.332 21.7783 25.3542 21.3312 26.0653L21.1979 26.2653C20.6654 27.1089 20.1543 27.5307 19.6645 27.5307C19.1748 27.5307 18.8428 27.2195 18.6685 26.5973C18.5328 26.0989 18.4646 25.5846 18.4659 25.068L18.4672 24.924V24.9307L18.6005 23.9973V24.064C18.245 24.9075 17.8894 25.6849 17.5339 26.396C17.3174 26.8242 17.0663 27.234 16.7832 27.6213L16.8005 27.596C16.5259 27.884 16.1392 28.0627 15.7112 28.0627H15.7005C15.6725 28.0653 15.6405 28.0653 15.6085 28.0653C15.2848 28.0657 14.9725 27.9454 14.7325 27.728L14.7339 27.7293C14.2608 27.2439 13.9202 26.6453 13.7445 25.9907L13.7379 25.9627C13.4759 25.219 13.3613 24.4315 13.4005 23.644V23.6573C13.5059 22.596 13.7179 21.624 14.0285 20.6973L14.0005 20.792L11.6019 22.192V22.2587C12.0394 23.1781 12.223 24.1977 12.1339 25.212L12.1352 25.1907C12.0706 26.5092 11.6499 27.7855 10.9179 28.884L10.9352 28.8573C10.2032 30.0284 9.12489 30.9427 7.84986 31.4733L7.80586 31.4893C7.0394 31.8277 6.21037 32.0013 5.37253 31.9987C4.8152 31.9987 4.27386 31.924 3.76186 31.7827L3.80453 31.792C3.39081 31.6546 3.03958 31.3743 2.81386 31.0013L2.80986 30.9933C2.48683 30.5216 2.30084 29.9697 2.27253 29.3987V29.3907C2.1882 28.5814 2.33086 27.7647 2.68453 27.032L2.67253 27.0587C3.41916 25.776 4.48239 24.7063 5.76053 23.952L5.80053 23.9307C6.75426 23.275 7.75573 22.6916 8.79653 22.1853L8.93786 22.1227L9.2712 21.9227C8.8712 21.6115 8.13786 21.0782 7.0712 20.3227C5.72601 19.4266 4.44552 18.4371 3.2392 17.3613L3.27253 17.3907C2.12933 16.4113 1.31825 15.1012 0.951197 13.6413L0.94053 13.5907C0.787121 12.6449 0.955186 11.675 1.41786 10.836L1.4072 10.8587C2.1212 9.30606 3.16176 7.92577 4.45786 6.81199L4.47386 6.79866C5.86103 5.48931 7.41274 4.3661 9.08986 3.45733L9.20586 3.39999C10.8341 2.47148 12.5428 1.69187 14.3112 1.07066L14.5379 1.00133C16.3757 0.342512 18.3135 0.00557509 20.2659 0.00532604H20.2685C21.9725 -0.0484326 23.6638 0.314996 25.1952 1.06399L25.1339 1.03599C26.3339 1.58266 27.2325 2.61199 27.5925 3.87066L27.6005 3.90266C27.9132 5.17105 27.8027 6.50689 27.2859 7.70666L27.3005 7.66799C26.7583 8.99952 25.942 10.202 24.9045 11.1973L24.9005 11.2013C23.8647 12.2284 22.632 13.0356 21.2765 13.5747L21.2032 13.6C19.6685 14.2478 18.0281 14.6089 16.3632 14.6653L16.3379 14.6667C15.2887 14.7796 14.2275 14.6844 13.2152 14.3867L13.2725 14.4013C12.6563 14.2081 12.0869 13.8889 11.6005 13.464L11.6059 13.468C11.2765 13.2006 11.0067 12.8672 10.8139 12.4893L10.8059 12.472C10.6725 12.1164 10.6614 11.9053 10.7725 11.8387C10.8836 11.772 10.9614 11.7609 11.0059 11.8053L11.3392 12.1387C11.7112 12.484 12.1552 12.756 12.6459 12.9293L12.6725 12.9373C13.3472 13.172 14.1259 13.308 14.9352 13.308C15.1952 13.308 15.4512 13.2947 15.7032 13.2667L15.6725 13.2693C17.7374 13.0332 19.7179 12.3147 21.4539 11.172L21.4045 11.2027C22.799 10.379 23.9605 9.21338 24.7792 7.81599L24.8032 7.77066C25.2045 7.18133 25.4445 6.45333 25.4445 5.66933C25.4445 5.18799 25.3539 4.72666 25.1885 4.30266L25.1979 4.32799C24.9507 3.93369 24.6227 3.59641 24.2353 3.3385C23.848 3.08059 23.4103 2.90794 22.9512 2.83199L22.9325 2.82933C21.4672 2.48361 19.9452 2.45316 18.4672 2.73999L18.5339 2.72933C16.4042 3.1038 14.3429 3.79643 12.4192 4.78399L12.5405 4.72666C7.07564 7.48221 4.25386 10.304 4.0752 13.192V13.2573C4.0752 14.4213 4.53253 15.4787 5.27786 16.26L5.27653 16.2587C6.1169 17.1948 7.06071 18.0326 8.08986 18.756L8.14186 18.7907C9.03959 19.4588 9.88556 20.1937 10.6725 20.9893L10.6739 20.992L10.8072 21.1253L15.0739 18.7933C15.5475 18.1037 16.1377 17.5018 16.8179 17.0147L16.8392 17C17.3725 16.552 18.0499 16.26 18.7925 16.2013L18.8045 16.2C18.8312 16.1973 18.8619 16.1973 18.8939 16.1973C19.3912 16.1973 19.8179 16.4973 20.0019 16.9267L20.0045 16.9347C20.1999 17.3784 20.2687 17.8676 20.2032 18.348L20.2045 18.3347L20.0752 18.992L20.2752 18.8587C20.3935 18.7688 20.5337 18.7124 20.6812 18.6953C20.8287 18.6782 20.9782 18.701 21.1139 18.7613L21.1085 18.7587C21.2576 18.7968 21.3857 18.892 21.4652 19.0236C21.5448 19.1553 21.5694 19.313 21.5339 19.4627L21.5352 19.4587L21.3352 20.192C20.9352 21.7911 20.669 22.9462 20.5365 23.6573C20.4508 23.9628 20.4175 24.2807 20.4379 24.5973V24.5893C20.4601 24.856 20.4934 24.9893 20.5379 24.9893C20.5823 24.9893 20.6708 24.856 20.8032 24.5893L21.0032 24.1227C21.0476 24.1227 21.0476 24.1449 21.0032 24.1893L21.7365 22.656C23.4699 18.8355 24.4028 16.7022 24.5352 16.256L24.9352 14.9907C24.9796 14.9018 25.1574 14.8133 25.4685 14.7253C25.8408 14.6273 26.225 14.5824 26.6099 14.592H26.6059C27.2281 14.592 27.5392 14.7475 27.5392 15.0587L27.4725 15.392C27.3041 15.8657 27.1665 16.3498 27.0605 16.8413L27.0459 16.9253C26.9788 17.3769 26.991 17.8366 27.0819 18.284L27.0779 18.2587L27.1445 18.524C27.2805 19.08 27.4872 19.568 27.7579 20.0133L27.7445 19.9907C28.277 19.1027 28.7881 18.192 29.2779 17.2587C29.6645 16.6147 30.0245 15.868 30.3139 15.0867L30.3445 14.9933C30.4445 14.4907 30.5592 14.0667 30.6992 13.6533L30.6779 13.728C30.7223 13.5947 30.9121 13.4947 31.2472 13.428C31.5645 13.364 31.9285 13.328 32.3005 13.328H32.3485H32.3459C32.9681 13.328 33.3001 13.4835 33.3419 13.7947L33.2085 14.06C33.0499 14.508 32.9112 15.0467 32.8179 15.6L32.8099 15.66C32.7681 16.1153 32.7924 16.5743 32.8819 17.0227L32.8765 16.992V17.2573C33.0299 17.8387 33.2579 18.3493 33.5565 18.812L33.5432 18.7907L33.7432 19.2573C34.9297 18.6828 36.2316 18.3864 37.5499 18.3907H37.6019H37.5992L37.5979 18.3947ZM9.01253 28.0653C9.97522 27.0728 10.5129 25.744 10.5112 24.3613C10.5116 23.8201 10.4297 23.282 10.2685 22.7653L10.2792 22.8027L9.21253 23.4693C8.12453 24.0893 7.1832 24.7813 6.3312 25.568L6.34186 25.5587C5.68705 26.1592 5.21594 26.9332 4.9832 27.7907L4.9752 27.824C4.7752 28.6462 4.8752 29.1796 5.2752 29.424C5.5192 29.536 5.80586 29.6013 6.10586 29.6013C6.43386 29.6013 6.74453 29.524 7.01786 29.3853L7.00586 29.3907C7.76969 29.1164 8.4549 28.6596 9.00186 28.06L9.00586 28.056L9.01253 28.0653ZM17.9419 21.9267C18.1641 21.3489 18.4085 20.66 18.6752 19.86C19.0308 18.7933 19.153 18.1715 19.0419 17.9947C18.9308 17.8178 18.7196 17.7955 18.4085 17.928C18.0493 18.1005 17.7321 18.3494 17.4792 18.6573L17.4752 18.6627C17.188 19.0276 16.9286 19.4136 16.6992 19.8173L16.6752 19.8627C16.3931 20.3282 16.1726 20.8284 16.0192 21.3507L16.0072 21.396C15.6966 22.2542 15.561 23.1659 15.6085 24.0773V24.0613C15.653 24.9493 15.7952 25.4271 16.0352 25.4947C16.2752 25.5622 16.553 25.24 16.8685 24.528C17.1739 23.9773 17.4459 23.3373 17.6485 22.6667L17.6672 22.5947C17.7996 22.28 17.8903 22.0573 17.9392 21.9267H17.9419ZM25.3365 25.46C25.7959 25.2568 26.1926 24.9344 26.4854 24.5262C26.7783 24.118 26.9566 23.639 27.0019 23.1387L27.0032 23.128V23.0613L26.2699 23.9947L24.9379 25.4613C24.9276 25.4692 24.9193 25.4793 24.9135 25.4908C24.9078 25.5024 24.9047 25.5151 24.9045 25.528C24.9045 25.5547 24.9179 25.5787 24.9365 25.5947C24.9792 25.6382 25.1125 25.5938 25.3365 25.4613V25.46ZM31.0685 24.1933C31.5666 24.0534 32.0053 23.7548 32.3181 23.3428C32.631 22.9308 32.8008 22.428 32.8019 21.9107V21.8587V21.8613C32.7885 21.5947 32.7405 21.344 32.6619 21.1067L32.6672 21.1267C32.1485 21.588 31.7232 22.14 31.4152 22.7627L31.4005 22.7933C30.9996 23.5924 30.8876 24.0582 31.0645 24.1907L31.0685 24.1933Z" fill="#A74AAF"/>
</g>
<defs>
<clipPath id="clip0_1103_74">
<rect width="42.6667" height="32" fill="white" transform="translate(0.887207)"/>
</clipPath>
</defs>
</svg>
