<svg width="52" height="48" viewBox="0 0 52 48" fill="none" xmlns="http://www.w3.org/2000/svg">
<mask id="path-1-inside-1_1196_10" fill="white">
<rect x="6.94604" y="6" width="39" height="37" rx="2"/>
</mask>
<rect x="6.94604" y="6" width="39" height="37" rx="2" stroke="#A74AAF" stroke-width="6" mask="url(#path-1-inside-1_1196_10)"/>
<path d="M26.4894 18.4091H28.8608V26.9616C28.8608 27.8991 28.6392 28.7237 28.196 29.4354C27.7571 30.147 27.1392 30.7031 26.3424 31.1037C25.5455 31.5 24.6144 31.6982 23.549 31.6982C22.4794 31.6982 21.5462 31.5 20.7493 31.1037C19.9524 30.7031 19.3345 30.147 18.8956 29.4354C18.4567 28.7237 18.2372 27.8991 18.2372 26.9616V18.4091H20.6087V26.7635C20.6087 27.3089 20.728 27.7947 20.9666 28.2209C21.2095 28.647 21.5504 28.9815 21.9894 29.2244C22.4283 29.4631 22.9482 29.5824 23.549 29.5824C24.1499 29.5824 24.6698 29.4631 25.1087 29.2244C25.5519 28.9815 25.8928 28.647 26.1314 28.2209C26.3701 27.7947 26.4894 27.3089 26.4894 26.7635V18.4091ZM33.8099 18.4091V31.5H31.4384V18.4091H33.8099Z" fill="#A74AAF"/>
</svg>
